<svg xmlns="http://www.w3.org/2000/svg" viewBox="0 0 1200 220"><rect width="1200" height="220" fill="#0d100e"/><path d="M0 150L100 112 190 148 290 92 380 136 480 78 590 138 690 90 790 130 900 72 1010 122 1100 82 1200 120V220H0Z" fill="#18251a"/><path d="M0 175L130 145 250 174 370 132 500 170 620 125 760 170 890 128 1020 166 1120 138 1200 158V220H0Z" fill="#111b13"/><rect y="184" width="1200" height="36" fill="#4f7c38"/><g fill="#74a94a"><rect x="80" y="179" width="18" height="12"/><rect x="260" y="176" width="26" height="15"/><rect x="520" y="180" width="16" height="11"/><rect x="820" y="176" width="24" height="14"/><rect x="1060" y="180" width="18" height="10"/></g><g font-family="monospace" text-anchor="middle"><text x="600" y="58" fill="#f0f4ec" font-size="26" font-weight="900">THANKS FOR VISITING MY WORLD</text><text x="600" y="88" fill="#9eb49e" font-size="14">build boldly · learn constantly · ship with care</text><text x="600" y="116" fill="#6fe58b" font-size="14">[ ROHIT-ATS ]  [ MAIN ]  [ STATUS: BUILDING ]</text></g></svg>